<?xml version="1.0" standalone="no"?>
<!DOCTYPE svg PUBLIC "-//W3C//DTD SVG 20010904//EN"
 "http://www.w3.org/TR/2001/REC-SVG-20010904/DTD/svg10.dtd">
<svg version="1.0" xmlns="http://www.w3.org/2000/svg"
 width="500.000000pt" height="500.000000pt" viewBox="0 0 500.000000 500.000000"
 preserveAspectRatio="xMidYMid meet">

<g transform="translate(0.000000,500.000000) scale(0.100000,-0.100000)"
fill="#000000" stroke="none">
<path d="M2314 4940 c-666 -56 -1313 -395 -1716 -900 -162 -203 -313 -472
-403 -714 -46 -126 -99 -331 -122 -476 -22 -142 -25 -517 -4 -655 80 -544 307
-1020 665 -1393 370 -386 878 -645 1431 -728 147 -22 483 -25 625 -6 547 76
1029 308 1414 682 400 389 658 916 726 1484 21 172 11 474 -20 661 -68 398
-258 824 -507 1135 -377 473 -953 801 -1563 890 -160 23 -386 32 -526 20z
m225 -525 c13 -31 46 -81 74 -111 l50 -55 -17 -52 c-38 -117 -66 -370 -76
-687 -5 -168 -6 -320 -2 -339 11 -50 32 -52 32 -4 0 21 7 139 15 263 21 295
77 652 97 619 2 -2 22 -32 46 -67 l44 -63 -22 -45 c-47 -101 -98 -437 -103
-673 l-2 -125 30 -7 c17 -3 66 -23 109 -43 64 -29 82 -34 92 -24 7 7 65 74
129 148 186 214 310 396 349 513 3 11 16 17 36 17 17 0 51 5 76 11 25 6 47 9
50 6 18 -17 -249 -369 -450 -595 -56 -62 -102 -117 -104 -122 -6 -16 26 -12
54 6 25 17 209 218 375 409 136 158 221 272 258 347 l32 65 79 6 c42 3 102 15
131 27 30 11 57 20 60 20 4 0 -5 -28 -18 -62 -16 -38 -27 -90 -30 -138 l-6
-76 -65 -34 c-89 -47 -290 -209 -504 -407 -188 -174 -261 -250 -255 -267 8
-23 29 -8 139 95 198 185 565 466 583 447 4 -4 -23 -156 -30 -168 -3 -6 -15
-10 -27 -10 -68 0 -310 -174 -560 -403 l-87 -80 23 -46 c13 -25 33 -76 45
-113 20 -61 25 -68 49 -68 25 0 192 15 435 40 123 12 293 54 329 80 35 26 37
26 78 -11 19 -16 47 -37 63 -47 15 -9 27 -19 27 -23 0 -8 -121 -35 -217 -49
-200 -28 -313 -39 -468 -45 -186 -7 -205 -10 -205 -30 0 -19 34 -25 150 -24
293 0 763 46 869 85 l65 23 55 -51 c31 -28 83 -63 116 -78 l60 -27 -55 -28
c-58 -29 -108 -63 -152 -103 -16 -15 -34 -22 -45 -19 -111 34 -176 47 -273 57
-388 39 -734 51 -785 28 -23 -11 -34 -27 -17 -28 4 -1 93 -5 197 -9 267 -13
706 -74 705 -99 -1 -4 -31 -28 -67 -54 l-65 -46 -44 23 c-94 50 -258 76 -700
111 l-81 6 -23 -68 c-12 -38 -31 -86 -41 -106 -26 -51 -24 -62 14 -93 17 -15
66 -58 107 -95 227 -203 439 -350 505 -350 25 0 28 -10 41 -119 8 -72 15 -72
-81 -7 -164 110 -411 313 -577 474 -32 31 -61 53 -65 49 -16 -17 45 -91 179
-217 337 -315 506 -454 615 -502 43 -19 43 -19 43 -71 0 -29 9 -86 20 -126 12
-40 19 -75 17 -77 -2 -2 -37 31 -77 74 -40 42 -366 371 -724 730 -440 441
-657 652 -669 650 -9 -2 -344 -329 -743 -728 -400 -399 -724 -716 -721 -705 3
11 13 45 21 75 9 30 16 78 16 107 l0 51 48 23 c120 57 243 157 607 495 146
135 201 204 165 204 -6 0 -84 -66 -173 -146 -198 -178 -526 -428 -542 -413 -2
3 0 22 5 44 4 22 11 61 15 88 5 41 9 47 30 47 30 0 142 59 224 119 146 106
421 348 421 371 0 8 -7 25 -15 37 -9 12 -28 57 -43 100 l-27 78 -75 -2 c-298
-9 -632 -62 -715 -113 l-33 -20 -66 47 c-36 27 -65 51 -66 54 -1 26 430 86
704 99 107 5 193 13 199 19 44 44 -284 41 -808 -9 -60 -6 -150 -22 -199 -36
l-89 -25 -26 24 c-40 37 -128 95 -166 108 -19 7 -35 15 -35 19 0 3 21 13 46
24 46 19 136 83 164 117 14 18 17 18 82 -6 36 -13 108 -29 160 -34 51 -6 160
-17 242 -26 189 -20 599 -25 617 -8 7 7 9 16 5 20 -3 4 -109 12 -234 19 -298
16 -662 68 -662 96 0 4 3 8 8 8 4 0 32 20 62 45 30 25 58 45 63 45 4 0 20 -9
35 -20 38 -27 203 -68 330 -80 252 -25 409 -40 434 -40 22 0 28 6 33 33 4 17
22 65 41 106 19 41 34 79 34 85 0 11 -118 123 -235 223 -164 139 -354 263
-404 263 -27 0 -38 28 -47 117 l-7 67 39 -24 c132 -81 372 -270 540 -427 109
-101 144 -124 144 -93 0 17 -118 135 -306 307 -217 197 -369 318 -459 364
l-62 33 -6 75 c-3 42 -15 103 -26 135 -12 33 -20 61 -18 62 2 2 27 -5 55 -16
29 -11 89 -23 134 -28 79 -7 82 -8 92 -37 33 -93 218 -325 532 -667 105 -114
139 -142 161 -134 14 6 13 10 -8 34 -58 64 -119 134 -196 222 -139 162 -352
454 -339 467 3 3 25 0 50 -6 25 -6 59 -11 76 -11 24 0 33 -6 41 -27 51 -130
154 -281 332 -488 66 -77 128 -148 137 -158 17 -18 19 -18 77 11 32 17 82 38
111 47 l52 17 0 58 c0 72 -25 335 -45 477 -18 119 -59 266 -81 284 -12 10 -9
19 21 54 19 23 40 54 46 69 13 28 27 34 34 14 3 -7 16 -80 31 -163 23 -136 42
-331 60 -628 4 -59 11 -110 15 -113 23 -14 28 84 19 372 -11 344 -34 556 -76
691 l-17 52 45 49 c24 28 59 77 77 111 18 33 38 61 45 61 7 0 23 -25 35 -55z
m-2 -2552 c13 -37 28 -82 32 -99 14 -54 14 -54 152 -54 71 0 129 -3 128 -7 0
-5 -41 -37 -91 -73 -50 -36 -95 -72 -101 -81 -7 -12 -1 -44 25 -123 20 -58 33
-108 28 -111 -7 -4 -134 78 -171 111 -27 24 -45 16 -141 -56 -51 -39 -94 -66
-96 -60 -3 8 41 161 65 225 2 6 -42 42 -97 80 -54 39 -100 73 -100 78 0 4 56
7 124 7 l124 0 38 113 c40 123 44 131 51 123 3 -3 16 -36 30 -73z m-683 -773
c9 -52 19 -104 21 -116 4 -17 19 -23 109 -37 57 -9 113 -17 125 -17 39 0 21
-15 -87 -70 l-107 -55 3 -61 c2 -33 9 -90 17 -125 7 -35 11 -66 9 -68 -3 -3
-44 34 -92 82 -48 48 -91 87 -95 87 -5 0 -55 -23 -112 -52 -57 -29 -107 -49
-111 -45 -4 4 17 54 47 111 l54 105 -89 90 c-50 50 -87 93 -84 96 3 3 57 -3
121 -15 63 -11 118 -20 121 -20 3 0 31 50 62 111 30 61 59 108 64 103 4 -5 15
-52 24 -104z m1382 -1 c55 -111 55 -111 87 -106 18 3 72 13 121 22 49 8 91 13
94 10 3 -3 -34 -46 -84 -96 l-89 -90 53 -102 c28 -56 52 -108 52 -115 0 -8
-41 8 -107 43 -59 30 -112 55 -117 55 -6 0 -50 -39 -98 -87 -48 -48 -89 -85
-92 -82 -2 2 2 33 9 68 8 35 15 92 17 125 l3 61 -100 51 c-54 29 -101 56 -103
62 -1 5 19 13 45 16 168 23 194 30 198 51 2 11 11 61 20 110 17 97 22 115 30
115 2 0 30 -50 61 -111z"/>
</g>
</svg>
